<svg xmlns="http://www.w3.org/2000/svg" viewBox="0 0 240 220">
  <defs>
    <linearGradient id="log" x1="0" y1="0" x2="0" y2="1">
      <stop offset="0%" stop-color="#6D4C41"/>
      <stop offset="40%" stop-color="#4E342E"/>
      <stop offset="100%" stop-color="#3E2723"/>
    </linearGradient>
    <radialGradient id="logEnd" cx="50%" cy="50%" r="50%">
      <stop offset="0%" stop-color="#8D6E63"/>
      <stop offset="100%" stop-color="#3E2723"/>
    </radialGradient>
    <radialGradient id="e" gradientUnits="userSpaceOnUse" cx="120" cy="213" r="76">
      <stop offset="0%" stop-color="#FF8F00" stop-opacity="0.80"/>
      <stop offset="100%" stop-color="#FF6D00" stop-opacity="0"/>
    </radialGradient>
    <radialGradient id="f" cx="50%" cy="72%" r="52%">
      <stop offset="0%" stop-color="#FFFDE7"/>
      <stop offset="26%" stop-color="#FFD54F"/>
      <stop offset="61%" stop-color="#FF6D00"/>
      <stop offset="100%" stop-color="#D84315"/>
    </radialGradient>
  </defs>
  <!-- Ember ground glow -->
  <ellipse cx="120" cy="209" rx="72" ry="16" fill="url(#e)"/>
  <!-- Crossed logs -->
  <rect x="28" y="175" width="184" height="24" rx="11"
        transform="rotate(-22 120 187)" fill="url(#log)"/>
  <ellipse cx="24" cy="178" rx="12" ry="10"
           transform="rotate(-22 24 178)" fill="url(#logEnd)"/>
  <ellipse cx="216" cy="196" rx="12" ry="10"
           transform="rotate(-22 216 196)" fill="url(#logEnd)"/>
  <rect x="28" y="175" width="184" height="24" rx="11"
        transform="rotate(22 120 187)" fill="url(#log)"/>
  <ellipse cx="216" cy="178" rx="12" ry="10"
           transform="rotate(22 216 178)" fill="url(#logEnd)"/>
  <ellipse cx="24" cy="196" rx="12" ry="10"
           transform="rotate(22 24 196)" fill="url(#logEnd)"/>
  <!-- Left side flame -->
  <path d="M88 185 C72 170 63 148 67 126 C70 108 80 100 81 80
           C83 93 80 107 87 113 C94 107 92 93 94 80
           C95 97 108 107 113 126 C118 148 111 170 88 185Z"
        fill="url(#f)" opacity="0.82"/>
  <!-- Center flame (tallest) -->
  <path d="M120 186 C96 168 80 140 86 110 C90 84 106 72 107 46
           C110 63 106 84 115 91 C124 84 122 63 125 46
           C126 70 140 84 148 108 C156 138 142 168 120 186Z"
        fill="url(#f)"/>
  <!-- Right side flame -->
  <path d="M152 185 C137 170 130 148 135 126 C138 107 148 97 149 80
           C151 93 149 107 155 113 C161 107 159 93 161 80
           C162 96 173 108 178 126 C183 148 175 170 152 185Z"
        fill="url(#f)" opacity="0.82"/>
  <!-- Inner bright core -->
  <path d="M120 178 C108 163 102 144 105 128 C108 116 113 109 115 101
           C117 109 122 116 125 128 C129 144 132 163 120 178Z"
        fill="#FFF9C4" opacity="0.87"/>
</svg>
