<svg xmlns="http://www.w3.org/2000/svg" viewBox="0 0 48 48">
  <defs>
    <linearGradient id="g" x1="0" y1="0" x2="1" y2="1">
      <stop offset="0%" stop-color="#FFD54F"/>
      <stop offset="100%" stop-color="#FF6D00"/>
    </linearGradient>
    <filter id="glow">
      <feGaussianBlur stdDeviation="1.2" result="blur"/>
      <feMerge><feMergeNode in="blur"/><feMergeNode in="SourceGraphic"/></feMerge>
    </filter>
  </defs>
  <!-- Main chat bubble (top-left) -->
  <path d="M5 7 C5 4.8 6.8 3 9 3 H33 C35.2 3 37 4.8 37 7
           V22 C37 24.2 35.2 26 33 26 H15 L7 33 V26 H9
           C6.8 26 5 24.2 5 22 V7Z"
        fill="url(#g)" filter="url(#glow)"/>
  <!-- Second bubble (bottom-right, offset) -->
  <path d="M15 30 H40 C42.2 30 44 31.8 44 34 V43
           L38 37 H15 C12.8 37 11 35.2 11 33
           C11 30.8 12.8 29 15 29Z"
        fill="url(#g)" opacity="0.52"/>
  <!-- Dots in main bubble -->
  <circle cx="15" cy="14.5" r="2" fill="#1A0000" opacity="0.6"/>
  <circle cx="21" cy="14.5" r="2" fill="#1A0000" opacity="0.6"/>
  <circle cx="27" cy="14.5" r="2" fill="#1A0000" opacity="0.6"/>
</svg>
